<svg width="42" height="34" viewBox="0 0 42 34" fill="none" xmlns="http://www.w3.org/2000/svg">
<path d="M37.6667 29.5H33.5V11.2709L21 19.0834L8.49999 11.2709V29.5H4.33332V4.50004H6.83332L21 13.3542L35.1667 4.50004H37.6667M37.6667 0.333374H4.33332C2.02082 0.333374 0.166656 2.18754 0.166656 4.50004V29.5C0.166656 30.6051 0.605643 31.6649 1.38704 32.4463C2.16845 33.2277 3.22825 33.6667 4.33332 33.6667H37.6667C38.7717 33.6667 39.8315 33.2277 40.6129 32.4463C41.3943 31.6649 41.8333 30.6051 41.8333 29.5V4.50004C41.8333 3.39497 41.3943 2.33516 40.6129 1.55376C39.8315 0.772361 38.7717 0.333374 37.6667 0.333374Z" fill="black"/>
</svg>
