<svg width="26" height="26" viewBox="0 0 26 26" fill="none" xmlns="http://www.w3.org/2000/svg">
<path d="M13 7.375H7.375M7.375 7.375H5.4725C4.46375 7.375 3.43125 7.61 2.81 8.405C2.1475 9.25375 1.4375 10.6988 1.4375 13C1.4375 15.3 2.1475 16.7462 2.81 17.595C3.43125 18.39 4.46375 18.625 5.4725 18.625H7.375M7.375 7.375V5.4725C7.375 4.46375 7.61 3.43125 8.405 2.81C9.25375 2.1475 10.6988 1.4375 13 1.4375C15.3 1.4375 16.7462 2.1475 17.595 2.81C18.39 3.43125 18.625 4.46375 18.625 5.4725V7.375M13 18.625H18.625M18.625 18.625H20.5262C21.535 18.625 22.5687 18.39 23.1887 17.595C23.8525 16.7462 24.5625 15.3012 24.5625 13C24.5625 10.7 23.8525 9.25375 23.19 8.405C22.5688 7.61 21.535 7.375 20.5275 7.375H18.625M18.625 18.625V20.5262C18.625 21.535 18.39 22.5687 17.595 23.1887C16.7462 23.8525 15.3012 24.5625 13 24.5625C10.7 24.5625 9.25375 23.8525 8.405 23.19C7.61 22.5688 7.375 21.535 7.375 20.5275V18.625M18.625 7.375V10.5C18.625 11.163 18.3616 11.7989 17.8928 12.2678C17.4239 12.7366 16.788 13 16.125 13H9.875C9.21196 13 8.57607 13.2634 8.10723 13.7322C7.63839 14.2011 7.375 14.837 7.375 15.5V18.625" stroke="#E6E6E6" stroke-width="1.875" stroke-linecap="round" stroke-linejoin="round"/>
<path d="M16.75 21.125C16.75 21.3736 16.6512 21.6121 16.4754 21.7879C16.2996 21.9637 16.0611 22.0625 15.8125 22.0625C15.5639 22.0625 15.3254 21.9637 15.1496 21.7879C14.9738 21.6121 14.875 21.3736 14.875 21.125C14.875 20.8764 14.9738 20.6379 15.1496 20.4621C15.3254 20.2863 15.5639 20.1875 15.8125 20.1875C16.0611 20.1875 16.2996 20.2863 16.4754 20.4621C16.6512 20.6379 16.75 20.8764 16.75 21.125ZM9.25 4.875C9.25 4.62636 9.34877 4.3879 9.52459 4.21209C9.7004 4.03627 9.93886 3.9375 10.1875 3.9375C10.4361 3.9375 10.6746 4.03627 10.8504 4.21209C11.0262 4.3879 11.125 4.62636 11.125 4.875C11.125 5.12364 11.0262 5.3621 10.8504 5.53791C10.6746 5.71373 10.4361 5.8125 10.1875 5.8125C9.93886 5.8125 9.7004 5.71373 9.52459 5.53791C9.34877 5.3621 9.25 5.12364 9.25 4.875Z" fill="#E6E6E6"/>
</svg>
