<svg width="24" height="26" viewBox="0 0 24 26" fill="none" xmlns="http://www.w3.org/2000/svg">
<path d="M10.8788 11.0475C10.4964 11.2683 10.1881 11.5975 9.99282 11.9935C9.79755 12.3895 9.72408 12.8345 9.78171 13.2722C9.83934 13.71 10.0255 14.1208 10.3166 14.4528C10.6077 14.7847 10.9907 15.0229 11.4171 15.1372C11.8436 15.2515 12.2944 15.2368 12.7125 15.0949C13.1306 14.9531 13.4972 14.6904 13.7661 14.3402C14.0349 13.9899 14.1939 13.5678 14.2228 13.1273C14.2518 12.6867 14.1494 12.2474 13.9288 11.865C13.7822 11.611 13.587 11.3884 13.3544 11.2099C13.1218 11.0313 12.8563 10.9004 12.5731 10.8245C12.2899 10.7485 11.9945 10.7292 11.7037 10.7674C11.413 10.8057 11.1327 10.9009 10.8788 11.0475ZM20.885 13.47C20.7383 13.3025 20.5838 13.1346 20.4213 12.9663C20.5346 12.8463 20.6446 12.7267 20.7513 12.6075C22.7575 10.3525 23.605 8.09 22.82 6.73125C22.0675 5.4275 19.8288 5.03875 17.025 5.58375C16.7492 5.63792 16.4746 5.69875 16.2013 5.76625C16.1488 5.58625 16.0933 5.40708 16.035 5.22875C15.0838 2.3625 13.5475 0.498751 11.9775 0.500001C10.4725 0.500001 9.0175 2.24625 8.08875 4.9475C7.99709 5.21417 7.9125 5.4825 7.835 5.7525C7.6525 5.7075 7.46917 5.66583 7.285 5.6275C4.3275 5.02125 1.94625 5.42125 1.1625 6.7825C0.411253 8.08625 1.19625 10.22 3.0725 12.3725C3.25917 12.585 3.45084 12.7933 3.6475 12.9975C3.415 13.2358 3.19625 13.4738 2.99125 13.7113C1.16 15.8338 0.420003 17.9313 1.17 19.23C1.945 20.5725 4.2925 21.0113 7.15125 20.4488C7.38292 20.4029 7.61334 20.3513 7.8425 20.2938C7.92584 20.5863 8.01792 20.8767 8.11875 21.165C9.04375 23.8113 10.49 25.5 11.99 25.5C13.54 25.5 15.0925 23.6838 16.0338 20.9263C16.1079 20.7079 16.1783 20.4825 16.245 20.25C16.5408 20.3233 16.8388 20.3883 17.1388 20.445C19.8925 20.9663 22.0788 20.5575 22.8275 19.2575C23.6013 17.9138 22.8025 15.6613 20.885 13.47ZM2.0875 7.315C2.57 6.4775 4.51625 6.15 7.07 6.675C7.23334 6.70833 7.39959 6.74583 7.56875 6.7875C7.31925 7.89047 7.14303 9.00875 7.04125 10.135C6.12056 10.7829 5.24249 11.4894 4.4125 12.25C4.23 12.0608 4.05209 11.8671 3.87875 11.6688C2.27 9.82625 1.635 8.10125 2.0875 7.315ZM6.94625 14.475C6.30875 13.9913 5.715 13.4963 5.17625 12.9988C5.71375 12.5038 6.3075 12.0113 6.945 11.5288C6.92167 12.0196 6.91042 12.5108 6.91125 13.0025C6.91125 13.4942 6.92292 13.985 6.94625 14.475ZM6.94625 19.4C5.86291 19.6424 4.74409 19.6822 3.64625 19.5175C3.34534 19.4937 3.05248 19.4085 2.78571 19.2673C2.51893 19.1261 2.28387 18.9317 2.095 18.6963C1.63875 17.9088 2.23375 16.2238 3.8 14.4088C3.99667 14.1813 4.2 13.9596 4.41 13.7438C5.24014 14.5093 6.11997 15.2192 7.04375 15.8688C7.14712 17.0092 7.325 18.1416 7.57625 19.2588C7.36792 19.3113 7.1575 19.3588 6.945 19.4013M15.82 9.3525C15.4008 9.08833 14.9767 8.83292 14.5475 8.58625C14.1242 8.34292 13.6963 8.10834 13.2638 7.8825C13.975 7.58275 14.7005 7.31786 15.4375 7.08875C15.6034 7.83633 15.7311 8.5919 15.82 9.3525ZM9.1 5.29375C9.895 2.98125 11.0725 1.56875 11.98 1.56875C12.9463 1.5675 14.2013 3.09125 15.0225 5.565C15.0758 5.72667 15.1258 5.88917 15.1725 6.0525C14.0944 6.38669 13.0397 6.79174 12.015 7.265C10.9939 6.78565 9.94147 6.37597 8.865 6.03875C8.9375 5.78875 9.01584 5.54042 9.1 5.29375ZM8.6 7.07375C9.33408 7.3041 10.0559 7.57195 10.7625 7.87625C9.88584 8.32792 9.0325 8.82 8.2025 9.3525C8.3025 8.555 8.43625 7.79125 8.6 7.07375ZM8.20375 16.6488C8.61792 16.9146 9.03834 17.17 9.465 17.415C9.9 17.665 10.3404 17.905 10.7863 18.135C10.0745 18.4496 9.34681 18.7271 8.60625 18.9663C8.43393 18.2013 8.2996 17.4283 8.20375 16.65M15.0238 20.5825C14.6921 21.6417 14.1675 22.6304 13.4763 23.4988C13.3056 23.7476 13.0858 23.959 12.8304 24.1198C12.575 24.2806 12.2895 24.3874 11.9913 24.4338C11.08 24.4338 9.91875 23.0775 9.12875 20.8138C9.03542 20.5463 8.94959 20.2763 8.87125 20.0038C9.95289 19.6553 11.0095 19.2335 12.0338 18.7413C13.0674 19.2178 14.1308 19.6265 15.2175 19.965C15.1575 20.1725 15.0929 20.3783 15.0238 20.5825ZM15.4763 18.9275C14.7292 18.6948 13.9942 18.4253 13.2738 18.12C13.6979 17.8975 14.125 17.6621 14.555 17.4138C14.9967 17.1588 15.4267 16.8975 15.845 16.63C15.7618 17.4017 15.6387 18.1685 15.4763 18.9275ZM16.035 12.9988C16.035 13.7579 16.0113 14.5163 15.9638 15.2738C15.3463 15.6921 14.6988 16.0971 14.0213 16.4888C13.3463 16.8779 12.6808 17.2346 12.025 17.5588C11.3358 17.2288 10.66 16.8729 9.9975 16.4913C9.33917 16.1121 8.69584 15.7083 8.0675 15.28C8.00917 14.5217 7.98 13.7625 7.98 13.0025C7.98 12.2433 8.00834 11.4846 8.065 10.7263C9.32115 9.86766 10.6408 9.10588 12.0125 8.4475C12.6925 8.77833 13.3604 9.13292 14.0163 9.51125C14.6746 9.88958 15.3204 10.2892 15.9538 10.71C16.0079 11.4717 16.035 12.2346 16.035 12.9988ZM17.23 6.6325C19.6325 6.16625 21.4425 6.48 21.8963 7.26625C22.38 8.10375 21.6875 9.95125 19.9538 11.8988C19.8579 12.0063 19.7588 12.1142 19.6563 12.2225C18.812 11.459 17.9166 10.754 16.9763 10.1125C16.8817 8.99867 16.7126 7.89244 16.47 6.80125C16.7283 6.73792 16.9817 6.68167 17.23 6.6325ZM17.0675 11.4888C17.7022 11.9515 18.3122 12.4472 18.895 12.9738C18.3148 13.5087 17.7069 14.0127 17.0738 14.4838C17.0929 13.9888 17.1025 13.4938 17.1025 12.9988C17.1025 12.4954 17.0908 11.9921 17.0675 11.4888ZM21.9038 18.725C21.4488 19.5138 19.6938 19.8425 17.3375 19.3975C17.0675 19.3467 16.7908 19.2858 16.5075 19.215C16.7444 18.1097 16.906 16.9897 16.9913 15.8625C17.9296 15.2098 18.8221 14.4936 19.6625 13.7188C19.81 13.8713 19.95 14.0229 20.0825 14.1738C20.8346 14.9901 21.4292 15.9386 21.8363 16.9713C21.9665 17.2435 22.0397 17.5395 22.0513 17.8411C22.0629 18.1427 22.0127 18.4435 21.9038 18.725Z" fill="#E6E6E6"/>
</svg>
