<svg width="30" height="28" viewBox="0 0 30 28" fill="none" xmlns="http://www.w3.org/2000/svg">
<g filter="url(#filter0_d_1_107)">
<path d="M15 0.5C8.1125 0.5 2.5 6.1125 2.5 13C2.5 19.8875 8.1125 25.5 15 25.5C21.8875 25.5 27.5 19.8875 27.5 13C27.5 6.1125 21.8875 0.5 15 0.5ZM3.7625 13C3.7625 11.375 4.1125 9.825 4.7375 8.425L10.1 23.1125C6.35 21.2875 3.7625 17.45 3.7625 13ZM15 24.2375C13.9 24.2375 12.8375 24.075 11.825 23.775L15.2 13.975L18.65 23.4375C18.675 23.4875 18.7 23.55 18.725 23.5875C17.5625 24.0125 16.3125 24.2375 15 24.2375ZM16.55 7.725C17.225 7.6875 17.8375 7.6125 17.8375 7.6125C18.4375 7.5375 18.375 6.65 17.7625 6.6875C17.7625 6.6875 15.9375 6.825 14.7625 6.825C13.6625 6.825 11.8 6.6875 11.8 6.6875C11.2 6.6625 11.125 7.5875 11.7375 7.625C11.7375 7.625 12.3125 7.7 12.9125 7.7375L14.6625 12.5375L12.2 19.9125L8.1125 7.725C8.7875 7.7 9.4 7.625 9.4 7.625C10 7.55 9.9375 6.6625 9.325 6.7C9.325 6.7 7.5 6.8375 6.325 6.8375C6.1125 6.8375 5.8625 6.8375 5.6 6.825C7.625 3.775 11.075 1.7625 15 1.7625C17.925 1.7625 20.5875 2.875 22.5875 4.7125C22.5375 4.7125 22.4875 4.7 22.4375 4.7C21.3375 4.7 20.55 5.6625 20.55 6.7C20.55 7.625 21.0875 8.4125 21.65 9.3375C22.075 10.0875 22.575 11.05 22.575 12.4375C22.575 13.4 22.2 14.5125 21.725 16.075L20.6 19.825L16.55 7.725ZM24.8625 7.6125C26.2659 10.1822 26.6109 13.1981 25.8241 16.0184C25.0373 18.8386 23.1809 21.2404 20.65 22.7125L24.0875 12.7875C24.725 11.1875 24.9375 9.9 24.9375 8.7625C24.9375 8.35 24.9125 7.9625 24.8625 7.6125Z" fill="#E6E6E6"/>
</g>
<defs>
<filter id="filter0_d_1_107" x="-1.5" y="0.5" width="33" height="33" filterUnits="userSpaceOnUse" color-interpolation-filters="sRGB">
<feFlood flood-opacity="0" result="BackgroundImageFix"/>
<feColorMatrix in="SourceAlpha" type="matrix" values="0 0 0 0 0 0 0 0 0 0 0 0 0 0 0 0 0 0 127 0" result="hardAlpha"/>
<feOffset dy="4"/>
<feGaussianBlur stdDeviation="2"/>
<feComposite in2="hardAlpha" operator="out"/>
<feColorMatrix type="matrix" values="0 0 0 0 0 0 0 0 0 0 0 0 0 0 0 0 0 0 0.25 0"/>
<feBlend mode="normal" in2="BackgroundImageFix" result="effect1_dropShadow_1_107"/>
<feBlend mode="normal" in="SourceGraphic" in2="effect1_dropShadow_1_107" result="shape"/>
</filter>
</defs>
</svg>
